<svg width="16" height="16" viewBox="0 0 16 16" fill="none" xmlns="http://www.w3.org/2000/svg">
<path d="M5.19967 1.33337H10.7997C12.933 1.33337 14.6663 3.06671 14.6663 5.20004V10.8C14.6663 11.8255 14.259 12.809 13.5338 13.5342C12.8087 14.2593 11.8252 14.6667 10.7997 14.6667H5.19967C3.06634 14.6667 1.33301 12.9334 1.33301 10.8V5.20004C1.33301 4.17454 1.74039 3.19104 2.46553 2.46589C3.19067 1.74075 4.17417 1.33337 5.19967 1.33337ZM5.06634 2.66671C4.42982 2.66671 3.81937 2.91956 3.36928 3.36965C2.9192 3.81974 2.66634 4.43019 2.66634 5.06671V10.9334C2.66634 12.26 3.73967 13.3334 5.06634 13.3334H10.933C11.5695 13.3334 12.18 13.0805 12.6301 12.6304C13.0802 12.1803 13.333 11.5699 13.333 10.9334V5.06671C13.333 3.74004 12.2597 2.66671 10.933 2.66671H5.06634ZM11.4997 3.66671C11.7207 3.66671 11.9326 3.7545 12.0889 3.91078C12.2452 4.06707 12.333 4.27903 12.333 4.50004C12.333 4.72105 12.2452 4.93302 12.0889 5.0893C11.9326 5.24558 11.7207 5.33337 11.4997 5.33337C11.2787 5.33337 11.0667 5.24558 10.9104 5.0893C10.7541 4.93302 10.6663 4.72105 10.6663 4.50004C10.6663 4.27903 10.7541 4.06707 10.9104 3.91078C11.0667 3.7545 11.2787 3.66671 11.4997 3.66671ZM7.99967 4.66671C8.88373 4.66671 9.73158 5.0179 10.3567 5.64302C10.9818 6.26814 11.333 7.11599 11.333 8.00004C11.333 8.8841 10.9818 9.73194 10.3567 10.3571C9.73158 10.9822 8.88373 11.3334 7.99967 11.3334C7.11562 11.3334 6.26777 10.9822 5.64265 10.3571C5.01753 9.73194 4.66634 8.8841 4.66634 8.00004C4.66634 7.11599 5.01753 6.26814 5.64265 5.64302C6.26777 5.0179 7.11562 4.66671 7.99967 4.66671ZM7.99967 6.00004C7.46924 6.00004 6.96053 6.21075 6.58546 6.58583C6.21039 6.9609 5.99967 7.46961 5.99967 8.00004C5.99967 8.53047 6.21039 9.03918 6.58546 9.41425C6.96053 9.78933 7.46924 10 7.99967 10C8.53011 10 9.03882 9.78933 9.41389 9.41425C9.78896 9.03918 9.99967 8.53047 9.99967 8.00004C9.99967 7.46961 9.78896 6.9609 9.41389 6.58583C9.03882 6.21075 8.53011 6.00004 7.99967 6.00004Z" fill="black"/>
</svg>
