<svg width="16" height="16" viewBox="0 0 16 16" fill="none" xmlns="http://www.w3.org/2000/svg">
<path d="M13.0348 1.99802C12.8743 2.0097 12.7168 2.04736 12.5683 2.10952H12.5663C12.4238 2.16602 11.7463 2.45102 10.7163 2.88302L7.02531 4.43752C4.37681 5.55252 1.77332 6.65052 1.77332 6.65052L1.80432 6.63852C1.80432 6.63852 1.62482 6.69752 1.43732 6.82602C1.32148 6.89973 1.2218 6.99618 1.14432 7.10952C1.05232 7.24452 0.978315 7.45102 1.00582 7.66452C1.05082 8.02552 1.28482 8.24202 1.45282 8.36152C1.62282 8.48252 1.78482 8.53902 1.78482 8.53902H1.78882L4.23032 9.36152C4.33982 9.71302 4.97431 11.799 5.12681 12.2795C5.21681 12.5665 5.30432 12.746 5.41382 12.883C5.46681 12.953 5.52881 13.0115 5.60331 13.0585C5.64205 13.081 5.68334 13.0988 5.72632 13.1115L5.70131 13.1055C5.70882 13.1075 5.71482 13.1135 5.72031 13.1155C5.74031 13.121 5.75382 13.123 5.77931 13.127C6.16581 13.244 6.47632 13.004 6.47632 13.004L6.49381 12.99L7.93532 11.6775L10.3513 13.531L10.4063 13.5545C10.9098 13.7755 11.4198 13.6525 11.6893 13.4355C11.9608 13.217 12.0663 12.9375 12.0663 12.9375L12.0838 12.8925L13.9508 3.32802C14.0038 3.09202 14.0173 2.87102 13.9588 2.65652C13.8985 2.43943 13.7592 2.25273 13.5683 2.13302C13.408 2.03558 13.2222 1.98855 13.0348 1.99802ZM12.9843 3.02302C12.9823 3.05452 12.9883 3.05102 12.9743 3.11152V3.11702L11.1248 12.582C11.1168 12.5955 11.1033 12.625 11.0663 12.6545C11.0273 12.6855 10.9963 12.705 10.8338 12.6405L7.87882 10.375L6.09381 12.002L6.46881 9.60702L11.2968 5.10702C11.4958 4.92202 11.4293 4.88302 11.4293 4.88302C11.4433 4.65602 11.1288 4.81652 11.1288 4.81652L5.04081 8.58802L5.03882 8.57802L2.12082 7.59552V7.59352L2.11332 7.59202C2.11843 7.59032 2.12344 7.58832 2.12832 7.58602L2.14432 7.57802L2.15982 7.57252C2.15982 7.57252 4.76532 6.47452 7.41382 5.35952C8.73981 4.80102 10.0758 4.23852 11.1033 3.80452C11.7127 3.54802 12.3227 3.29302 12.9333 3.03952C12.9743 3.02352 12.9548 3.02302 12.9843 3.02302Z" fill="black"/>
</svg>
